<svg width="506" height="102" viewBox="0 0 506 102" fill="none" xmlns="http://www.w3.org/2000/svg">
<path d="M109 51C109 79.1664 84.5995 102 54.5 102C24.4005 102 0.000106914 79.1664 0.000106914 51C0.000106914 22.8335 24.4005 9.52916e-05 54.5 9.52916e-05C84.5995 9.52916e-05 109 22.8335 109 51Z" fill="#1E3A5A"/>
<path fill-rule="evenodd" clip-rule="evenodd" d="M54.5 9.52916e-05C56.3051 8.94462e-05 58.1103 0.0677454 59.9123 0.205307C64.6322 0.565459 69.332 1.40463 73.9428 2.74435C73.687 3.42976 73.431 4.11538 73.1752 4.80079C68.9832 2.88835 64.4521 1.6309 59.8259 1.09246C59.0182 0.998142 58.2076 0.92539 57.3955 0.874264C58.5668 1.27739 59.7189 1.72927 60.8599 2.23421C63.0309 3.19488 65.134 4.34227 67.1275 5.66468C67.681 6.03093 68.2258 6.41003 68.7623 6.80032C68.184 7.03672 67.6174 7.29587 67.0638 7.57669C66.7869 7.36423 66.5073 7.15468 66.2249 6.94874C64.3607 5.58738 62.3951 4.36061 60.3446 3.29855C59.2187 2.71592 58.075 2.18517 56.9036 1.70511C57.6124 2.35213 58.2636 3.06011 58.8426 3.77012C60.1128 5.3347 61.1501 6.9881 62.0957 8.77659C62.3612 9.28644 62.6176 9.80051 62.866 10.318C62.4105 10.6921 61.9701 11.0837 61.545 11.491C61.2713 10.8101 60.9843 10.1351 60.6817 9.46727C59.8647 7.69893 58.9874 6.05007 57.8939 4.481C56.9683 3.15046 55.8115 1.8251 54.4944 0.868144C53.1479 1.80247 51.9453 3.10508 50.9854 4.4146C49.8441 5.96619 48.9249 7.60378 48.0735 9.35343C46.2966 13.0745 45.0103 17.0266 44.0086 21.0669C47.5021 21.2339 50.9975 21.2971 54.4999 21.2986C54.8312 21.2985 55.1624 21.2974 55.4936 21.2961C55.1824 22.313 54.9406 23.3598 54.7734 24.4313C54.6823 24.4315 54.5911 24.4322 54.4999 24.4322C50.7689 24.4306 47.0488 24.2879 43.3287 24.012C43.0601 25.2616 42.8133 26.5163 42.583 27.7718C41.2176 35.3887 40.6885 43.1747 40.6353 50.9218C40.6332 51.3152 40.6325 51.7087 40.6328 52.1021C45.2206 52.2173 49.8118 52.2554 54.4027 52.238C58.8602 52.2204 63.3175 52.1488 67.7686 52.0085C67.7684 51.6516 67.768 51.2946 67.7659 50.9377C67.7603 50.1876 67.7504 49.4371 67.736 48.6863C68.7533 49.1614 69.8112 49.5644 70.9032 49.889C70.9089 50.2317 70.9136 50.5745 70.9162 50.9172C70.9181 51.244 70.9181 51.5709 70.9171 51.8977C76.3566 51.6915 81.7793 51.423 87.1872 50.9549C87.1792 50.2194 87.1582 49.4837 87.1247 48.7482C88.184 48.2617 89.1997 47.6975 90.1646 47.0629C90.258 48.2586 90.3147 49.4574 90.3335 50.6574C94.2545 50.2581 98.178 49.7535 102 48.9823C103.245 48.7285 104.54 48.4264 105.759 48.0761C105.75 47.9159 105.739 47.7555 105.728 47.5954C105.406 43.0857 104.427 38.6254 102.831 34.3928C103.814 34.0262 104.797 33.6596 105.781 33.293C107.483 37.8053 108.527 42.5651 108.87 47.3723C108.957 48.5796 109 49.7897 109 51C109.016 59.6332 106.737 68.2511 102.482 75.7638C98.0813 83.5764 91.4524 90.0245 83.8003 94.5405C74.9273 99.7993 64.6024 102.021 54.5 102C44.5311 102.02 34.3414 99.8783 25.5475 94.7535C17.7375 90.2215 10.9722 83.6824 6.50456 75.7399C2.25734 68.2328 -0.0159921 59.6241 0.000106914 51C-0.0188303 41.974 2.47842 32.9688 7.10755 25.2187C11.9199 17.112 19.1321 10.548 27.3906 6.17543C35.7519 1.73036 45.2283 -0.014865 54.5 9.52916e-05ZM99.3752 74.8574C98.9909 75.0023 98.6096 75.1376 98.2369 75.2647C95.2176 76.2754 92.1592 76.9513 89.0669 77.5219C87.174 77.8636 85.2805 78.1662 83.3856 78.4341C79.7249 84.9572 74.5689 90.6083 68.4956 94.8918C66.0457 96.6282 63.4366 98.1453 60.7543 99.4359C59.4235 100.076 58.136 100.637 56.8103 101.161C66.0304 100.704 74.9662 97.4662 82.5538 92.5437C89.5054 88.0615 95.2713 81.9139 99.3752 74.8574ZM9.73514 75.0468C13.8967 82.1348 19.7458 88.2892 26.7787 92.7476C34.2941 97.5412 43.1005 100.707 52.188 101.16C50.8628 100.637 49.5756 100.076 48.2452 99.4359C45.5629 98.1452 42.9539 96.6282 40.5039 94.8918C34.4606 90.6294 29.3254 85.0129 25.6681 78.5305C23.7733 78.2712 21.88 77.9774 19.9865 77.6431C16.8796 77.0823 13.8051 76.4171 10.7685 75.4116C10.4296 75.2972 10.0838 75.1758 9.73514 75.0468ZM64.8226 80.0609C61.3863 80.2061 57.9482 80.2822 54.511 80.2892C50.9215 80.2956 47.3324 80.2201 43.7444 80.0692C44.714 83.8225 45.966 87.4991 47.6241 90.9806C48.6789 93.1827 49.8759 95.2842 51.2866 97.2522C52.2544 98.6016 53.3265 99.8853 54.4947 101.052C55.6334 99.8718 56.6744 98.574 57.6114 97.2118C58.9748 95.2285 60.1277 93.1117 61.1383 90.9038C62.7174 87.4327 63.9045 83.7822 64.8226 80.0609ZM80.3522 78.8332C76.7105 79.2778 73.0606 79.6011 69.3942 79.8271C68.6415 79.8725 67.8885 79.9139 67.1355 79.9526C65.9753 83.9659 64.4824 87.8898 62.5541 91.5905C61.3915 93.8124 60.063 95.9236 58.5252 97.8783C57.8397 98.7497 57.1104 99.5892 56.3424 100.383C57.6589 99.7846 58.9268 99.1491 60.2341 98.4349C62.7923 97.0316 65.2542 95.4227 67.5542 93.6356C72.7835 89.5888 77.1308 84.5161 80.3522 78.8332ZM28.6934 78.9146C31.9102 84.5646 36.241 89.6081 41.4453 93.6356C43.7453 95.4227 46.2072 97.0316 48.7654 98.4349C50.0379 99.1301 51.273 99.7506 52.5519 100.335C51.7924 99.5739 51.0688 98.7703 50.3861 97.9361C48.8015 95.9999 47.428 93.9068 46.2203 91.6918C44.2018 87.9764 42.6352 84.0173 41.4186 79.9609C40.6151 79.9198 39.8116 79.8754 39.0082 79.8268C35.5551 79.6135 32.1203 79.3173 28.6934 78.9146ZM67.7468 55.0742C63.3063 55.2542 58.861 55.354 54.415 55.3716C49.8301 55.389 45.2449 55.3185 40.6611 55.1611C40.7688 61.0343 41.1941 66.9028 42.1797 72.6975C42.4277 74.1389 42.7053 75.5801 43.0183 77.0148C46.846 77.1242 50.6756 77.1624 54.5048 77.1556C58.1774 77.1481 61.8517 77.0919 65.5225 76.972C65.8223 75.5282 66.0877 74.0784 66.3246 72.6286C67.2612 66.8222 67.6541 60.9503 67.7468 55.0742ZM21.8477 53.8593C22.1186 61.5082 23.8046 69.1336 27.1798 76.0429C27.1963 76.0767 27.2132 76.1104 27.2297 76.1442C31.19 76.4954 35.1664 76.707 39.1611 76.8796C39.6335 76.8993 40.1059 76.9176 40.5784 76.9349C40.2572 75.6817 39.9663 74.4226 39.7031 73.162C38.4684 67.1874 37.7464 61.1217 37.5432 55.0396C32.2961 54.8069 27.0908 54.426 21.8477 53.8593ZM87.1601 53.6123C81.7377 54.2221 76.3123 54.6571 70.866 54.9331C70.6798 61.0168 69.9902 67.0851 68.8051 73.0721C68.5503 74.345 68.2681 75.6165 67.9563 76.8826C68.3823 76.8653 68.8084 76.8476 69.2343 76.8285C73.448 76.6336 77.648 76.4041 81.8308 76.0196C85.2348 69.0421 86.9174 61.3356 87.1601 53.6123ZM3.15431 50.2942C3.15115 50.5293 3.14985 50.7646 3.15031 50.9998C3.1374 58.4569 4.94207 65.8836 8.34336 72.5197C9.30487 72.9386 10.3544 73.2882 11.3481 73.5746C14.27 74.4089 17.296 74.9357 20.3535 75.3721C21.6539 75.553 22.956 75.7117 24.2597 75.8529C20.8514 68.9093 18.9657 61.2267 18.6931 53.4936C14.5495 52.9741 10.4245 52.3368 6.32951 51.2765C5.2635 50.9903 4.19985 50.6828 3.15431 50.2942ZM105.843 50.2287C104.727 50.5692 103.581 50.8676 102.478 51.129C98.4582 52.0699 94.3816 52.7142 90.3147 53.2344C90.0771 61.0053 88.2102 68.7328 84.8054 75.7188C86.1012 75.5744 87.3954 75.4124 88.6876 75.2286C91.7312 74.7843 94.7424 74.2531 97.6505 73.4194C98.6796 73.1219 99.7693 72.756 100.76 72.3165C104.094 65.7322 105.862 58.3809 105.85 50.9998C105.85 50.7428 105.847 50.4856 105.843 50.2287ZM29.3921 22.1594C28.9633 22.9085 28.552 23.667 28.1597 24.4337C23.963 32.6377 21.9071 41.8377 21.8117 50.9861C21.811 51.0536 21.8107 51.1212 21.8102 51.1887C27.0387 51.6159 32.2431 51.8393 37.4853 52.0097C37.4835 51.6409 37.4831 51.272 37.485 50.9031C37.5398 42.9637 38.4516 35.0292 40.1101 27.2874C40.3637 26.127 40.6359 24.9688 40.9297 23.8159C40.2147 23.7519 39.4995 23.6834 38.7842 23.6096C35.6368 23.2814 32.4973 22.797 29.3921 22.1594ZM16.4516 17.9299C13.932 20.6549 11.7046 23.6383 9.81882 26.8143C5.96929 33.2616 3.69567 40.6102 3.23676 48.0911C4.37703 48.5184 5.61952 48.8498 6.8642 49.1402C10.7089 50.0093 14.6767 50.508 18.6624 50.9038C18.7719 41.2673 21.3135 31.6943 25.9311 23.2635C26.236 22.7063 26.5511 22.154 26.8762 21.6077C26.8596 21.6038 26.8429 21.6002 26.8264 21.5963C24.1728 20.969 21.5453 20.209 19.0063 19.1537C18.1538 18.7967 17.2803 18.3894 16.4516 17.9299ZM51.9151 1.77916C50.8067 2.23947 49.7229 2.74592 48.655 3.29855C46.6045 4.36061 44.6388 5.58739 42.7747 6.94874C37.9557 10.4628 33.9255 14.9399 30.7393 19.9307C33.4924 20.2885 36.2723 20.5343 39.0482 20.7557C39.9366 20.8256 40.8251 20.8869 41.7136 20.9415C42.9547 16.6861 44.5441 12.5347 46.6741 8.6349C47.6554 6.86554 48.7359 5.22428 50.0548 3.68015C50.6141 3.0277 51.2396 2.37808 51.9151 1.77916ZM51.5985 0.876406C43.4115 1.40674 35.4912 4.17337 28.5418 8.2279C24.4938 10.5763 20.7957 13.4713 17.5435 16.7842C18.2169 17.0795 18.9184 17.3439 19.609 17.5759C22.0824 18.4033 24.6684 18.9583 27.2767 19.4126C27.5709 19.4631 27.8656 19.5114 28.1606 19.5586C31.7689 14.0846 36.4135 9.27656 41.872 5.66468C43.8655 4.34227 45.9687 3.19488 48.1397 2.23421C49.2787 1.73009 50.4292 1.27903 51.5985 0.876406Z" fill="#DDE0E4"/>
<path d="M79.072 51.1568H75.9217V32.355H79.072V51.1568Z" fill="#E48C38"/>
<path d="M63.7005 31.0486C64.9642 36.2778 69.256 40.3385 74.6235 41.2919L74.0697 44.3766C67.4634 43.2032 62.1921 38.2138 60.6376 31.7812L63.7005 31.0486Z" fill="#E48C38"/>
<path d="M93.4741 31.7812C91.9966 37.8953 87.162 42.7043 81.0154 44.174L80.2789 41.1273C85.2744 39.9329 89.2104 36.0177 90.4112 31.0486L93.4741 31.7812Z" fill="#E48C38"/>
<path d="M77.4969 26.4011C78.5408 26.4011 79.387 27.2428 79.387 28.2812C79.387 29.3196 78.5408 30.1614 77.4969 30.1614C76.4529 30.1614 75.6067 29.3196 75.6067 28.2812C75.6067 27.2428 76.4529 26.4011 77.4969 26.4011Z" fill="#E48C38"/>
<path d="M73.4015 29.848H54.4998V26.7144H73.4015V29.848Z" fill="#E48C38"/>
<path d="M100.494 29.848H81.5922V26.7144H100.494V29.848Z" fill="#E48C38"/>
<path d="M74.6235 14.3932C68.9889 15.394 64.5411 19.8182 63.535 25.423L60.4339 24.8722C61.672 17.9754 67.1363 12.54 74.0697 11.3085L74.6235 14.3932Z" fill="#E48C38"/>
<path d="M81.0154 11.5111C87.4822 13.0574 92.4981 18.3008 93.6777 24.8722L90.5767 25.423C89.6182 20.0839 85.536 15.8148 80.2789 14.5578L81.0154 11.5111Z" fill="#E48C38"/>
<path d="M79.072 24.2075H75.9217V5.40571H79.072V24.2075Z" fill="#E48C38"/>
<path d="M131.16 64V12.16H140.504V64H131.16Z" fill="#BC191D"/>
<path d="M148.529 64V12.16H155.121L167.729 41.728V12.16H175.537V64H169.265L156.593 33.024V64H148.529Z" fill="#BC191D"/>
<path d="M183.404 64V12.16H195.628C199.852 12.16 203.137 12.736 205.484 13.888C207.873 15.04 209.559 16.8107 210.54 19.2C211.564 21.5893 212.076 24.6187 212.076 28.288V47.232C212.076 50.9867 211.564 54.1227 210.54 56.64C209.559 59.1147 207.895 60.9707 205.548 62.208C203.244 63.4027 200.065 64 196.012 64H183.404ZM192.876 57.408H195.756C197.932 57.408 199.489 57.024 200.428 56.256C201.367 55.488 201.943 54.3787 202.156 52.928C202.369 51.4347 202.476 49.6213 202.476 47.488V27.648C202.476 25.5573 202.327 23.872 202.028 22.592C201.729 21.312 201.111 20.3733 200.172 19.776C199.233 19.1787 197.719 18.88 195.628 18.88H192.876V57.408Z" fill="#BC191D"/>
<path d="M219.285 64V12.16H228.629V64H219.285Z" fill="#BC191D"/>
<path d="M249.646 64.704C246.233 64.704 243.523 63.9787 241.518 62.528C239.513 61.0773 238.062 59.0293 237.166 56.384C236.313 53.696 235.886 50.5387 235.886 46.912V29.504C235.886 25.792 236.313 22.592 237.166 19.904C238.019 17.216 239.513 15.168 241.646 13.76C243.822 12.3093 246.809 11.584 250.606 11.584C254.147 11.584 256.963 12.1813 259.054 13.376C261.145 14.5707 262.638 16.2987 263.534 18.56C264.473 20.7787 264.942 23.488 264.942 26.688V29.376H255.918V26.432C255.918 24.768 255.79 23.3387 255.534 22.144C255.321 20.9493 254.851 20.0533 254.126 19.456C253.443 18.816 252.313 18.496 250.734 18.496C249.07 18.496 247.854 18.9013 247.086 19.712C246.361 20.5227 245.891 21.5893 245.678 22.912C245.507 24.2347 245.422 25.6853 245.422 27.264V48.96C245.422 50.752 245.571 52.3093 245.87 53.632C246.169 54.9547 246.723 55.9787 247.534 56.704C248.345 57.3867 249.497 57.728 250.99 57.728C252.526 57.728 253.699 57.344 254.51 56.576C255.321 55.808 255.875 54.7413 256.174 53.376C256.515 52.0107 256.686 50.3893 256.686 48.512V43.648H251.118V37.696H265.198V64H259.118L258.414 58.88C257.731 60.5867 256.686 61.9947 255.278 63.104C253.913 64.1707 252.035 64.704 249.646 64.704Z" fill="#BC191D"/>
<path d="M272.66 64V12.16H282.004V64H272.66Z" fill="#BC191D"/>
<path d="M303.085 64.704C299.97 64.704 297.368 64.1067 295.277 62.912C293.186 61.6747 291.608 59.8827 290.541 57.536C289.474 55.1893 288.877 52.3093 288.749 48.896L296.877 47.296C296.962 49.3013 297.197 51.072 297.581 52.608C298.008 54.144 298.626 55.3387 299.437 56.192C300.29 57.0027 301.4 57.408 302.765 57.408C304.301 57.408 305.389 56.96 306.029 56.064C306.669 55.1253 306.989 53.952 306.989 52.544C306.989 50.2827 306.477 48.4267 305.453 46.976C304.429 45.5253 303.064 44.0747 301.357 42.624L294.829 36.864C292.994 35.2853 291.522 33.536 290.413 31.616C289.346 29.6533 288.813 27.2427 288.813 24.384C288.813 20.288 290.008 17.1307 292.397 14.912C294.786 12.6933 298.05 11.584 302.189 11.584C304.621 11.584 306.648 11.968 308.269 12.736C309.89 13.4613 311.17 14.4853 312.109 15.808C313.09 17.1307 313.816 18.6453 314.285 20.352C314.754 22.016 315.053 23.7867 315.181 25.664L307.117 27.072C307.032 25.4507 306.84 24 306.541 22.72C306.285 21.44 305.794 20.4373 305.069 19.712C304.386 18.9867 303.362 18.624 301.997 18.624C300.589 18.624 299.501 19.0933 298.733 20.032C298.008 20.928 297.645 22.0587 297.645 23.424C297.645 25.1733 298.008 26.624 298.733 27.776C299.458 28.8853 300.504 30.0373 301.869 31.232L308.333 36.928C310.466 38.72 312.28 40.832 313.773 43.264C315.309 45.6533 316.077 48.5547 316.077 51.968C316.077 54.4427 315.522 56.64 314.413 58.56C313.346 60.48 311.832 61.9947 309.869 63.104C307.949 64.1707 305.688 64.704 303.085 64.704Z" fill="#BC191D"/>
<path d="M337.088 64V19.136H328.832V12.16H354.688V19.136H346.56V64H337.088Z" fill="#DDE0E4"/>
<path d="M366.278 64.576C363.505 64.576 361.243 64.064 359.494 63.04C357.745 61.9733 356.443 60.4373 355.59 58.432C354.779 56.384 354.374 53.9307 354.374 51.072V39.936C354.374 36.992 354.779 34.5173 355.59 32.512C356.443 30.5067 357.745 28.992 359.494 27.968C361.286 26.944 363.547 26.432 366.278 26.432C369.222 26.432 371.505 26.9867 373.126 28.096C374.79 29.2053 375.963 30.8267 376.646 32.96C377.371 35.0507 377.734 37.6107 377.734 40.64V45.888H363.014V53.184C363.014 54.3787 363.121 55.36 363.334 56.128C363.59 56.896 363.974 57.4507 364.486 57.792C364.998 58.1333 365.617 58.304 366.342 58.304C367.11 58.304 367.729 58.1333 368.198 57.792C368.667 57.408 369.009 56.8747 369.222 56.192C369.435 55.4667 369.542 54.5707 369.542 53.504V50.432H377.67V52.928C377.67 56.6827 376.731 59.5627 374.854 61.568C372.977 63.5733 370.118 64.576 366.278 64.576ZM363.014 41.6H369.542V38.08C369.542 36.8 369.435 35.776 369.222 35.008C369.009 34.1973 368.667 33.6213 368.198 33.28C367.729 32.896 367.067 32.704 366.214 32.704C365.446 32.704 364.827 32.896 364.358 33.28C363.889 33.664 363.547 34.304 363.334 35.2C363.121 36.096 363.014 37.376 363.014 39.04V41.6Z" fill="#DDE0E4"/>
<path d="M394.776 64.576C391.918 64.576 389.614 64.0427 387.865 62.976C386.158 61.8667 384.899 60.3093 384.089 58.304C383.321 56.256 382.936 53.8453 382.936 51.072V39.936C382.936 37.0773 383.321 34.6453 384.089 32.64C384.899 30.6347 386.179 29.0987 387.928 28.032C389.678 26.9653 391.96 26.432 394.776 26.432C397.422 26.432 399.577 26.8587 401.241 27.712C402.947 28.5227 404.185 29.7813 404.953 31.488C405.721 33.152 406.104 35.264 406.104 37.824V40.896H397.913V37.632C397.913 36.352 397.806 35.3493 397.592 34.624C397.422 33.856 397.102 33.3227 396.633 33.024C396.163 32.6827 395.544 32.512 394.776 32.512C394.008 32.512 393.39 32.7253 392.921 33.152C392.451 33.536 392.11 34.176 391.897 35.072C391.726 35.968 391.641 37.2053 391.641 38.784V52.352C391.641 54.7413 391.897 56.3627 392.409 57.216C392.921 58.0267 393.731 58.432 394.841 58.432C395.694 58.432 396.334 58.24 396.76 57.856C397.23 57.472 397.528 56.9173 397.656 56.192C397.827 55.424 397.913 54.5067 397.913 53.44V49.472H406.104V52.992C406.104 55.4667 405.699 57.5787 404.888 59.328C404.12 61.0773 402.883 62.4 401.177 63.296C399.513 64.1493 397.379 64.576 394.776 64.576Z" fill="#DDE0E4"/>
<path d="M411.956 64V12.16H420.66V30.528C421.94 29.248 423.327 28.2453 424.82 27.52C426.356 26.7947 428.02 26.432 429.812 26.432C431.305 26.432 432.5 26.816 433.396 27.584C434.292 28.3093 434.953 29.2907 435.38 30.528C435.807 31.7653 436.02 33.1093 436.02 34.56V64H427.316V36.288C427.316 35.1787 427.145 34.3253 426.804 33.728C426.463 33.1307 425.801 32.832 424.82 32.832C424.223 32.832 423.54 33.0027 422.772 33.344C422.047 33.6853 421.343 34.1333 420.66 34.688V64H411.956Z" fill="#DDE0E4"/>
<path d="M442.966 64V12.16H452.439V34.944L462.678 12.16H471.703L461.783 35.328L472.727 64H463.319L454.615 40.384L452.439 44.352V64H442.966Z" fill="#DDE0E4"/>
<path d="M129.052 93V80.4H133.768C134.836 80.4 135.754 80.574 136.522 80.922C137.29 81.258 137.878 81.75 138.286 82.398C138.706 83.034 138.916 83.808 138.916 84.72C138.916 85.608 138.706 86.376 138.286 87.024C137.878 87.66 137.29 88.152 136.522 88.5C135.754 88.848 134.836 89.022 133.768 89.022H129.79L130.384 88.392V93H129.052ZM130.384 88.5L129.79 87.852H133.732C134.992 87.852 135.946 87.582 136.594 87.042C137.254 86.49 137.584 85.716 137.584 84.72C137.584 83.712 137.254 82.932 136.594 82.38C135.946 81.828 134.992 81.552 133.732 81.552H129.79L130.384 80.922V88.5Z" fill="#8A9BB8"/>
<path d="M141.658 93V83.55H142.882V86.124L142.756 85.674C143.02 84.954 143.464 84.408 144.088 84.036C144.712 83.652 145.486 83.46 146.41 83.46V84.702C146.362 84.702 146.314 84.702 146.266 84.702C146.218 84.69 146.17 84.684 146.122 84.684C145.126 84.684 144.346 84.99 143.782 85.602C143.218 86.202 142.936 87.06 142.936 88.176V93H141.658Z" fill="#8A9BB8"/>
<path d="M153.028 93.09C152.044 93.09 151.18 92.886 150.436 92.478C149.692 92.058 149.11 91.488 148.69 90.768C148.27 90.036 148.06 89.202 148.06 88.266C148.06 87.33 148.258 86.502 148.654 85.782C149.062 85.062 149.614 84.498 150.31 84.09C151.018 83.67 151.81 83.46 152.686 83.46C153.574 83.46 154.36 83.664 155.044 84.072C155.74 84.468 156.286 85.032 156.682 85.764C157.078 86.484 157.276 87.318 157.276 88.266C157.276 88.326 157.27 88.392 157.258 88.464C157.258 88.524 157.258 88.59 157.258 88.662H149.032V87.708H156.574L156.07 88.086C156.07 87.402 155.92 86.796 155.62 86.268C155.332 85.728 154.936 85.308 154.432 85.008C153.928 84.708 153.346 84.558 152.686 84.558C152.038 84.558 151.456 84.708 150.94 85.008C150.424 85.308 150.022 85.728 149.734 86.268C149.446 86.808 149.302 87.426 149.302 88.122V88.32C149.302 89.04 149.458 89.676 149.77 90.228C150.094 90.768 150.538 91.194 151.102 91.506C151.678 91.806 152.332 91.956 153.064 91.956C153.64 91.956 154.174 91.854 154.666 91.65C155.17 91.446 155.602 91.134 155.962 90.714L156.682 91.542C156.262 92.046 155.734 92.43 155.098 92.694C154.474 92.958 153.784 93.09 153.028 93.09Z" fill="#8A9BB8"/>
<path d="M164.161 93.09C163.225 93.09 162.385 92.886 161.641 92.478C160.909 92.058 160.333 91.488 159.913 90.768C159.493 90.036 159.283 89.202 159.283 88.266C159.283 87.318 159.493 86.484 159.913 85.764C160.333 85.044 160.909 84.48 161.641 84.072C162.385 83.664 163.225 83.46 164.161 83.46C164.965 83.46 165.691 83.616 166.339 83.928C166.987 84.24 167.497 84.708 167.869 85.332L166.915 85.98C166.591 85.5 166.189 85.146 165.709 84.918C165.229 84.69 164.707 84.576 164.143 84.576C163.471 84.576 162.865 84.732 162.325 85.044C161.785 85.344 161.359 85.77 161.047 86.322C160.735 86.874 160.579 87.522 160.579 88.266C160.579 89.01 160.735 89.658 161.047 90.21C161.359 90.762 161.785 91.194 162.325 91.506C162.865 91.806 163.471 91.956 164.143 91.956C164.707 91.956 165.229 91.842 165.709 91.614C166.189 91.386 166.591 91.038 166.915 90.57L167.869 91.218C167.497 91.83 166.987 92.298 166.339 92.622C165.691 92.934 164.965 93.09 164.161 93.09Z" fill="#8A9BB8"/>
<path d="M170.599 93V83.55H171.877V93H170.599ZM171.247 81.462C170.983 81.462 170.761 81.372 170.581 81.192C170.401 81.012 170.311 80.796 170.311 80.544C170.311 80.292 170.401 80.082 170.581 79.914C170.761 79.734 170.983 79.644 171.247 79.644C171.511 79.644 171.733 79.728 171.913 79.896C172.093 80.064 172.183 80.274 172.183 80.526C172.183 80.79 172.093 81.012 171.913 81.192C171.745 81.372 171.523 81.462 171.247 81.462Z" fill="#8A9BB8"/>
<path d="M178.331 93.09C177.551 93.09 176.813 92.982 176.117 92.766C175.421 92.538 174.875 92.256 174.479 91.92L175.055 90.912C175.439 91.2 175.931 91.452 176.531 91.668C177.131 91.872 177.761 91.974 178.421 91.974C179.321 91.974 179.969 91.836 180.365 91.56C180.761 91.272 180.959 90.894 180.959 90.426C180.959 90.078 180.845 89.808 180.617 89.616C180.401 89.412 180.113 89.262 179.753 89.166C179.393 89.058 178.991 88.968 178.547 88.896C178.103 88.824 177.659 88.74 177.215 88.644C176.783 88.548 176.387 88.41 176.027 88.23C175.667 88.038 175.373 87.78 175.145 87.456C174.929 87.132 174.821 86.7 174.821 86.16C174.821 85.644 174.965 85.182 175.253 84.774C175.541 84.366 175.961 84.048 176.513 83.82C177.077 83.58 177.761 83.46 178.565 83.46C179.177 83.46 179.789 83.544 180.401 83.712C181.013 83.868 181.517 84.078 181.913 84.342L181.355 85.368C180.935 85.08 180.485 84.876 180.005 84.756C179.525 84.624 179.045 84.558 178.565 84.558C177.713 84.558 177.083 84.708 176.675 85.008C176.279 85.296 176.081 85.668 176.081 86.124C176.081 86.484 176.189 86.766 176.405 86.97C176.633 87.174 176.927 87.336 177.287 87.456C177.659 87.564 178.061 87.654 178.493 87.726C178.937 87.798 179.375 87.888 179.807 87.996C180.251 88.092 180.653 88.23 181.013 88.41C181.385 88.578 181.679 88.824 181.895 89.148C182.123 89.46 182.237 89.874 182.237 90.39C182.237 90.942 182.081 91.422 181.769 91.83C181.469 92.226 181.025 92.538 180.437 92.766C179.861 92.982 179.159 93.09 178.331 93.09Z" fill="#8A9BB8"/>
<path d="M184.942 93V83.55H186.22V93H184.942ZM185.59 81.462C185.326 81.462 185.104 81.372 184.924 81.192C184.744 81.012 184.654 80.796 184.654 80.544C184.654 80.292 184.744 80.082 184.924 79.914C185.104 79.734 185.326 79.644 185.59 79.644C185.854 79.644 186.076 79.728 186.256 79.896C186.436 80.064 186.526 80.274 186.526 80.526C186.526 80.79 186.436 81.012 186.256 81.192C186.088 81.372 185.866 81.462 185.59 81.462Z" fill="#8A9BB8"/>
<path d="M193.988 93.09C193.076 93.09 192.254 92.886 191.522 92.478C190.802 92.058 190.232 91.488 189.812 90.768C189.392 90.036 189.182 89.202 189.182 88.266C189.182 87.318 189.392 86.484 189.812 85.764C190.232 85.044 190.802 84.48 191.522 84.072C192.242 83.664 193.064 83.46 193.988 83.46C194.924 83.46 195.752 83.664 196.472 84.072C197.204 84.48 197.774 85.044 198.182 85.764C198.602 86.484 198.812 87.318 198.812 88.266C198.812 89.202 198.602 90.036 198.182 90.768C197.774 91.488 197.204 92.058 196.472 92.478C195.74 92.886 194.912 93.09 193.988 93.09ZM193.988 91.956C194.672 91.956 195.278 91.806 195.806 91.506C196.334 91.194 196.748 90.762 197.048 90.21C197.36 89.646 197.516 88.998 197.516 88.266C197.516 87.522 197.36 86.874 197.048 86.322C196.748 85.77 196.334 85.344 195.806 85.044C195.278 84.732 194.678 84.576 194.006 84.576C193.334 84.576 192.734 84.732 192.206 85.044C191.678 85.344 191.258 85.77 190.946 86.322C190.634 86.874 190.478 87.522 190.478 88.266C190.478 88.998 190.634 89.646 190.946 90.21C191.258 90.762 191.678 91.194 192.206 91.506C192.734 91.806 193.328 91.956 193.988 91.956Z" fill="#8A9BB8"/>
<path d="M201.781 93V83.55H203.005V86.142L202.807 85.656C203.107 84.972 203.587 84.438 204.247 84.054C204.907 83.658 205.693 83.46 206.605 83.46C207.373 83.46 208.045 83.61 208.621 83.91C209.209 84.198 209.665 84.642 209.989 85.242C210.325 85.842 210.493 86.598 210.493 87.51V93H209.215V87.636C209.215 86.64 208.963 85.89 208.459 85.386C207.967 84.87 207.271 84.612 206.371 84.612C205.699 84.612 205.111 84.75 204.607 85.026C204.115 85.29 203.731 85.68 203.455 86.196C203.191 86.7 203.059 87.312 203.059 88.032V93H201.781Z" fill="#8A9BB8"/>
<path d="M219.646 93V80.4H220.744L226.504 90.228H225.928L231.634 80.4H232.732V93H231.454V82.398H231.76L226.504 91.398H225.874L220.582 82.398H220.924V93H219.646Z" fill="#8A9BB8"/>
<path d="M242.85 93V90.912L242.796 90.57V87.078C242.796 86.274 242.568 85.656 242.112 85.224C241.668 84.792 241.002 84.576 240.114 84.576C239.502 84.576 238.92 84.678 238.368 84.882C237.816 85.086 237.348 85.356 236.964 85.692L236.388 84.738C236.868 84.33 237.444 84.018 238.116 83.802C238.788 83.574 239.496 83.46 240.24 83.46C241.464 83.46 242.406 83.766 243.066 84.378C243.738 84.978 244.074 85.896 244.074 87.132V93H242.85ZM239.592 93.09C238.884 93.09 238.266 92.976 237.738 92.748C237.222 92.508 236.826 92.184 236.55 91.776C236.274 91.356 236.136 90.876 236.136 90.336C236.136 89.844 236.25 89.4 236.478 89.004C236.718 88.596 237.102 88.272 237.63 88.032C238.17 87.78 238.89 87.654 239.79 87.654H243.048V88.608H239.826C238.914 88.608 238.278 88.77 237.918 89.094C237.57 89.418 237.396 89.82 237.396 90.3C237.396 90.84 237.606 91.272 238.026 91.596C238.446 91.92 239.034 92.082 239.79 92.082C240.51 92.082 241.128 91.92 241.644 91.596C242.172 91.26 242.556 90.78 242.796 90.156L243.084 91.038C242.844 91.662 242.424 92.16 241.824 92.532C241.236 92.904 240.492 93.09 239.592 93.09Z" fill="#8A9BB8"/>
<path d="M252.783 93.09C251.967 93.09 251.229 92.904 250.569 92.532C249.909 92.148 249.381 91.602 248.985 90.894C248.601 90.174 248.409 89.298 248.409 88.266C248.409 87.234 248.601 86.364 248.985 85.656C249.369 84.936 249.891 84.39 250.551 84.018C251.211 83.646 251.955 83.46 252.783 83.46C253.683 83.46 254.487 83.664 255.195 84.072C255.915 84.468 256.479 85.032 256.887 85.764C257.295 86.484 257.499 87.318 257.499 88.266C257.499 89.226 257.295 90.066 256.887 90.786C256.479 91.506 255.915 92.07 255.195 92.478C254.487 92.886 253.683 93.09 252.783 93.09ZM247.905 96.492V83.55H249.129V86.394L249.003 88.284L249.183 90.192V96.492H247.905ZM252.693 91.956C253.365 91.956 253.965 91.806 254.493 91.506C255.021 91.194 255.441 90.762 255.753 90.21C256.065 89.646 256.221 88.998 256.221 88.266C256.221 87.534 256.065 86.892 255.753 86.34C255.441 85.788 255.021 85.356 254.493 85.044C253.965 84.732 253.365 84.576 252.693 84.576C252.021 84.576 251.415 84.732 250.875 85.044C250.347 85.356 249.927 85.788 249.615 86.34C249.315 86.892 249.165 87.534 249.165 88.266C249.165 88.998 249.315 89.646 249.615 90.21C249.927 90.762 250.347 91.194 250.875 91.506C251.415 91.806 252.021 91.956 252.693 91.956Z" fill="#8A9BB8"/>
<path d="M265.342 93.09C264.526 93.09 263.788 92.904 263.128 92.532C262.468 92.148 261.94 91.602 261.544 90.894C261.16 90.174 260.968 89.298 260.968 88.266C260.968 87.234 261.16 86.364 261.544 85.656C261.928 84.936 262.45 84.39 263.11 84.018C263.77 83.646 264.514 83.46 265.342 83.46C266.242 83.46 267.046 83.664 267.754 84.072C268.474 84.468 269.038 85.032 269.446 85.764C269.854 86.484 270.058 87.318 270.058 88.266C270.058 89.226 269.854 90.066 269.446 90.786C269.038 91.506 268.474 92.07 267.754 92.478C267.046 92.886 266.242 93.09 265.342 93.09ZM260.464 96.492V83.55H261.688V86.394L261.562 88.284L261.742 90.192V96.492H260.464ZM265.252 91.956C265.924 91.956 266.524 91.806 267.052 91.506C267.58 91.194 268 90.762 268.312 90.21C268.624 89.646 268.78 88.998 268.78 88.266C268.78 87.534 268.624 86.892 268.312 86.34C268 85.788 267.58 85.356 267.052 85.044C266.524 84.732 265.924 84.576 265.252 84.576C264.58 84.576 263.974 84.732 263.434 85.044C262.906 85.356 262.486 85.788 262.174 86.34C261.874 86.892 261.724 87.534 261.724 88.266C261.724 88.998 261.874 89.646 262.174 90.21C262.486 90.762 262.906 91.194 263.434 91.506C263.974 91.806 264.58 91.956 265.252 91.956Z" fill="#8A9BB8"/>
<path d="M273.023 93V83.55H274.301V93H273.023ZM273.671 81.462C273.407 81.462 273.185 81.372 273.005 81.192C272.825 81.012 272.735 80.796 272.735 80.544C272.735 80.292 272.825 80.082 273.005 79.914C273.185 79.734 273.407 79.644 273.671 79.644C273.935 79.644 274.157 79.728 274.337 79.896C274.517 80.064 274.607 80.274 274.607 80.526C274.607 80.79 274.517 81.012 274.337 81.192C274.169 81.372 273.947 81.462 273.671 81.462Z" fill="#8A9BB8"/>
<path d="M278.217 93V83.55H279.441V86.142L279.243 85.656C279.543 84.972 280.023 84.438 280.683 84.054C281.343 83.658 282.129 83.46 283.041 83.46C283.809 83.46 284.481 83.61 285.057 83.91C285.645 84.198 286.101 84.642 286.425 85.242C286.761 85.842 286.929 86.598 286.929 87.51V93H285.651V87.636C285.651 86.64 285.399 85.89 284.895 85.386C284.403 84.87 283.707 84.612 282.807 84.612C282.135 84.612 281.547 84.75 281.043 85.026C280.551 85.29 280.167 85.68 279.891 86.196C279.627 86.7 279.495 87.312 279.495 88.032V93H278.217Z" fill="#8A9BB8"/>
<path d="M294.773 96.582C293.909 96.582 293.081 96.456 292.289 96.204C291.497 95.952 290.855 95.592 290.363 95.124L291.011 94.152C291.455 94.548 292.001 94.86 292.649 95.088C293.309 95.328 294.005 95.448 294.737 95.448C295.937 95.448 296.819 95.166 297.383 94.602C297.947 94.05 298.229 93.186 298.229 92.01V89.652L298.409 88.032L298.283 86.412V83.55H299.507V91.848C299.507 93.48 299.105 94.674 298.301 95.43C297.509 96.198 296.333 96.582 294.773 96.582ZM294.539 92.64C293.639 92.64 292.829 92.448 292.109 92.064C291.389 91.668 290.819 91.122 290.399 90.426C289.991 89.73 289.787 88.932 289.787 88.032C289.787 87.132 289.991 86.34 290.399 85.656C290.819 84.96 291.389 84.42 292.109 84.036C292.829 83.652 293.639 83.46 294.539 83.46C295.379 83.46 296.135 83.634 296.807 83.982C297.479 84.33 298.013 84.846 298.409 85.53C298.805 86.214 299.003 87.048 299.003 88.032C299.003 89.016 298.805 89.85 298.409 90.534C298.013 91.218 297.479 91.74 296.807 92.1C296.135 92.46 295.379 92.64 294.539 92.64ZM294.665 91.506C295.361 91.506 295.979 91.362 296.519 91.074C297.059 90.774 297.485 90.366 297.797 89.85C298.109 89.322 298.265 88.716 298.265 88.032C298.265 87.348 298.109 86.748 297.797 86.232C297.485 85.716 297.059 85.314 296.519 85.026C295.979 84.726 295.361 84.576 294.665 84.576C293.981 84.576 293.363 84.726 292.811 85.026C292.271 85.314 291.845 85.716 291.533 86.232C291.233 86.748 291.083 87.348 291.083 88.032C291.083 88.716 291.233 89.322 291.533 89.85C291.845 90.366 292.271 90.774 292.811 91.074C293.363 91.362 293.981 91.506 294.665 91.506Z" fill="#8A9BB8"/>
<path d="M303.549 93.09C303.285 93.09 303.057 92.994 302.865 92.802C302.685 92.61 302.595 92.376 302.595 92.1C302.595 91.812 302.685 91.578 302.865 91.398C303.057 91.218 303.285 91.128 303.549 91.128C303.813 91.128 304.035 91.218 304.215 91.398C304.407 91.578 304.503 91.812 304.503 92.1C304.503 92.376 304.407 92.61 304.215 92.802C304.035 92.994 303.813 93.09 303.549 93.09Z" fill="#8A9BB8"/>
<path d="M312.939 93V80.4H314.271V93H312.939Z" fill="#8A9BB8"/>
<path d="M318.461 93V83.55H319.685V86.142L319.487 85.656C319.787 84.972 320.267 84.438 320.927 84.054C321.587 83.658 322.373 83.46 323.285 83.46C324.053 83.46 324.725 83.61 325.301 83.91C325.889 84.198 326.345 84.642 326.669 85.242C327.005 85.842 327.173 86.598 327.173 87.51V93H325.895V87.636C325.895 86.64 325.643 85.89 325.139 85.386C324.647 84.87 323.951 84.612 323.051 84.612C322.379 84.612 321.79 84.75 321.286 85.026C320.794 85.29 320.411 85.68 320.135 86.196C319.871 86.7 319.739 87.312 319.739 88.032V93H318.461Z" fill="#8A9BB8"/>
<path d="M333.973 93.09C333.085 93.09 332.401 92.85 331.921 92.37C331.441 91.89 331.201 91.212 331.201 90.336V81.462H332.479V90.264C332.479 90.816 332.617 91.242 332.893 91.542C333.181 91.842 333.589 91.992 334.117 91.992C334.681 91.992 335.149 91.83 335.521 91.506L335.971 92.424C335.719 92.652 335.413 92.82 335.053 92.928C334.705 93.036 334.345 93.09 333.973 93.09ZM329.509 84.612V83.55H335.359V84.612H329.509Z" fill="#8A9BB8"/>
<path d="M342.337 93.09C341.353 93.09 340.489 92.886 339.745 92.478C339.001 92.058 338.419 91.488 337.999 90.768C337.579 90.036 337.369 89.202 337.369 88.266C337.369 87.33 337.567 86.502 337.963 85.782C338.371 85.062 338.923 84.498 339.619 84.09C340.327 83.67 341.119 83.46 341.995 83.46C342.883 83.46 343.669 83.664 344.353 84.072C345.049 84.468 345.595 85.032 345.991 85.764C346.387 86.484 346.585 87.318 346.585 88.266C346.585 88.326 346.579 88.392 346.567 88.464C346.567 88.524 346.567 88.59 346.567 88.662H338.341V87.708H345.883L345.379 88.086C345.379 87.402 345.229 86.796 344.929 86.268C344.641 85.728 344.245 85.308 343.741 85.008C343.237 84.708 342.655 84.558 341.995 84.558C341.347 84.558 340.765 84.708 340.249 85.008C339.733 85.308 339.331 85.728 339.043 86.268C338.755 86.808 338.611 87.426 338.611 88.122V88.32C338.611 89.04 338.767 89.676 339.079 90.228C339.403 90.768 339.847 91.194 340.411 91.506C340.987 91.806 341.641 91.956 342.373 91.956C342.949 91.956 343.483 91.854 343.975 91.65C344.479 91.446 344.911 91.134 345.271 90.714L345.991 91.542C345.571 92.046 345.043 92.43 344.407 92.694C343.783 92.958 343.093 93.09 342.337 93.09Z" fill="#8A9BB8"/>
<path d="M349.546 93V79.644H350.824V93H349.546Z" fill="#8A9BB8"/>
<path d="M354.74 93V79.644H356.018V93H354.74Z" fill="#8A9BB8"/>
<path d="M359.934 93V83.55H361.212V93H359.934ZM360.582 81.462C360.318 81.462 360.096 81.372 359.916 81.192C359.736 81.012 359.646 80.796 359.646 80.544C359.646 80.292 359.736 80.082 359.916 79.914C360.096 79.734 360.318 79.644 360.582 79.644C360.846 79.644 361.068 79.728 361.248 79.896C361.428 80.064 361.518 80.274 361.518 80.526C361.518 80.79 361.428 81.012 361.248 81.192C361.08 81.372 360.858 81.462 360.582 81.462Z" fill="#8A9BB8"/>
<path d="M369.16 96.582C368.296 96.582 367.468 96.456 366.676 96.204C365.884 95.952 365.242 95.592 364.75 95.124L365.398 94.152C365.842 94.548 366.388 94.86 367.036 95.088C367.696 95.328 368.392 95.448 369.124 95.448C370.324 95.448 371.206 95.166 371.77 94.602C372.334 94.05 372.616 93.186 372.616 92.01V89.652L372.796 88.032L372.67 86.412V83.55H373.894V91.848C373.894 93.48 373.492 94.674 372.688 95.43C371.896 96.198 370.72 96.582 369.16 96.582ZM368.926 92.64C368.026 92.64 367.216 92.448 366.496 92.064C365.776 91.668 365.206 91.122 364.786 90.426C364.378 89.73 364.174 88.932 364.174 88.032C364.174 87.132 364.378 86.34 364.786 85.656C365.206 84.96 365.776 84.42 366.496 84.036C367.216 83.652 368.026 83.46 368.926 83.46C369.766 83.46 370.522 83.634 371.194 83.982C371.866 84.33 372.4 84.846 372.796 85.53C373.192 86.214 373.39 87.048 373.39 88.032C373.39 89.016 373.192 89.85 372.796 90.534C372.4 91.218 371.866 91.74 371.194 92.1C370.522 92.46 369.766 92.64 368.926 92.64ZM369.052 91.506C369.748 91.506 370.366 91.362 370.906 91.074C371.446 90.774 371.872 90.366 372.184 89.85C372.496 89.322 372.652 88.716 372.652 88.032C372.652 87.348 372.496 86.748 372.184 86.232C371.872 85.716 371.446 85.314 370.906 85.026C370.366 84.726 369.748 84.576 369.052 84.576C368.368 84.576 367.75 84.726 367.198 85.026C366.658 85.314 366.232 85.716 365.92 86.232C365.62 86.748 365.47 87.348 365.47 88.032C365.47 88.716 365.62 89.322 365.92 89.85C366.232 90.366 366.658 90.774 367.198 91.074C367.75 91.362 368.368 91.506 369.052 91.506Z" fill="#8A9BB8"/>
<path d="M381.825 93.09C380.841 93.09 379.977 92.886 379.233 92.478C378.489 92.058 377.907 91.488 377.487 90.768C377.067 90.036 376.857 89.202 376.857 88.266C376.857 87.33 377.055 86.502 377.451 85.782C377.859 85.062 378.411 84.498 379.107 84.09C379.815 83.67 380.607 83.46 381.483 83.46C382.371 83.46 383.157 83.664 383.841 84.072C384.537 84.468 385.083 85.032 385.479 85.764C385.875 86.484 386.073 87.318 386.073 88.266C386.073 88.326 386.067 88.392 386.055 88.464C386.055 88.524 386.055 88.59 386.055 88.662H377.829V87.708H385.371L384.867 88.086C384.867 87.402 384.717 86.796 384.417 86.268C384.129 85.728 383.733 85.308 383.229 85.008C382.725 84.708 382.143 84.558 381.483 84.558C380.835 84.558 380.253 84.708 379.737 85.008C379.221 85.308 378.819 85.728 378.531 86.268C378.243 86.808 378.099 87.426 378.099 88.122V88.32C378.099 89.04 378.255 89.676 378.567 90.228C378.891 90.768 379.335 91.194 379.899 91.506C380.475 91.806 381.129 91.956 381.861 91.956C382.437 91.956 382.971 91.854 383.463 91.65C383.967 91.446 384.399 91.134 384.759 90.714L385.479 91.542C385.059 92.046 384.531 92.43 383.895 92.694C383.271 92.958 382.581 93.09 381.825 93.09Z" fill="#8A9BB8"/>
<path d="M389.034 93V83.55H390.258V86.142L390.06 85.656C390.36 84.972 390.84 84.438 391.5 84.054C392.16 83.658 392.946 83.46 393.858 83.46C394.626 83.46 395.298 83.61 395.874 83.91C396.462 84.198 396.918 84.642 397.242 85.242C397.578 85.842 397.746 86.598 397.746 87.51V93H396.468V87.636C396.468 86.64 396.216 85.89 395.712 85.386C395.22 84.87 394.524 84.612 393.624 84.612C392.952 84.612 392.364 84.75 391.86 85.026C391.368 85.29 390.984 85.68 390.708 86.196C390.444 86.7 390.312 87.312 390.312 88.032V93H389.034Z" fill="#8A9BB8"/>
<path d="M404.546 93.09C403.658 93.09 402.974 92.85 402.494 92.37C402.014 91.89 401.774 91.212 401.774 90.336V81.462H403.052V90.264C403.052 90.816 403.19 91.242 403.466 91.542C403.754 91.842 404.162 91.992 404.69 91.992C405.254 91.992 405.722 91.83 406.094 91.506L406.544 92.424C406.292 92.652 405.986 92.82 405.626 92.928C405.278 93.036 404.918 93.09 404.546 93.09ZM400.082 84.612V83.55H405.932V84.612H400.082Z" fill="#8A9BB8"/>
<path d="M414.571 93V80.4H419.701C421.045 80.4 422.221 80.67 423.229 81.21C424.249 81.738 425.041 82.476 425.605 83.424C426.169 84.372 426.451 85.464 426.451 86.7C426.451 87.936 426.169 89.028 425.605 89.976C425.041 90.924 424.249 91.668 423.229 92.208C422.221 92.736 421.045 93 419.701 93H414.571ZM415.903 91.848H419.629C420.745 91.848 421.711 91.632 422.527 91.2C423.355 90.756 423.997 90.15 424.453 89.382C424.909 88.602 425.137 87.708 425.137 86.7C425.137 85.68 424.909 84.786 424.453 84.018C423.997 83.25 423.355 82.65 422.527 82.218C421.711 81.774 420.745 81.552 419.629 81.552H415.903V91.848Z" fill="#8A9BB8"/>
<path d="M433.546 93.09C432.562 93.09 431.698 92.886 430.954 92.478C430.21 92.058 429.628 91.488 429.208 90.768C428.788 90.036 428.578 89.202 428.578 88.266C428.578 87.33 428.776 86.502 429.172 85.782C429.58 85.062 430.132 84.498 430.828 84.09C431.536 83.67 432.328 83.46 433.204 83.46C434.092 83.46 434.878 83.664 435.562 84.072C436.258 84.468 436.804 85.032 437.2 85.764C437.596 86.484 437.794 87.318 437.794 88.266C437.794 88.326 437.788 88.392 437.776 88.464C437.776 88.524 437.776 88.59 437.776 88.662H429.55V87.708H437.092L436.588 88.086C436.588 87.402 436.438 86.796 436.138 86.268C435.85 85.728 435.454 85.308 434.95 85.008C434.446 84.708 433.864 84.558 433.204 84.558C432.556 84.558 431.974 84.708 431.458 85.008C430.942 85.308 430.54 85.728 430.252 86.268C429.964 86.808 429.82 87.426 429.82 88.122V88.32C429.82 89.04 429.976 89.676 430.288 90.228C430.612 90.768 431.056 91.194 431.62 91.506C432.196 91.806 432.85 91.956 433.582 91.956C434.158 91.956 434.692 91.854 435.184 91.65C435.688 91.446 436.12 91.134 436.48 90.714L437.2 91.542C436.78 92.046 436.252 92.43 435.616 92.694C434.992 92.958 434.302 93.09 433.546 93.09Z" fill="#8A9BB8"/>
<path d="M444.68 93.09C443.744 93.09 442.904 92.886 442.16 92.478C441.428 92.058 440.852 91.488 440.432 90.768C440.012 90.036 439.802 89.202 439.802 88.266C439.802 87.318 440.012 86.484 440.432 85.764C440.852 85.044 441.428 84.48 442.16 84.072C442.904 83.664 443.744 83.46 444.68 83.46C445.484 83.46 446.21 83.616 446.858 83.928C447.506 84.24 448.016 84.708 448.388 85.332L447.434 85.98C447.11 85.5 446.708 85.146 446.228 84.918C445.748 84.69 445.226 84.576 444.662 84.576C443.99 84.576 443.384 84.732 442.844 85.044C442.304 85.344 441.878 85.77 441.566 86.322C441.254 86.874 441.098 87.522 441.098 88.266C441.098 89.01 441.254 89.658 441.566 90.21C441.878 90.762 442.304 91.194 442.844 91.506C443.384 91.806 443.99 91.956 444.662 91.956C445.226 91.956 445.748 91.842 446.228 91.614C446.708 91.386 447.11 91.038 447.434 90.57L448.388 91.218C448.016 91.83 447.506 92.298 446.858 92.622C446.21 92.934 445.484 93.09 444.68 93.09Z" fill="#8A9BB8"/>
<path d="M451.118 93V83.55H452.396V93H451.118ZM451.766 81.462C451.502 81.462 451.28 81.372 451.1 81.192C450.92 81.012 450.83 80.796 450.83 80.544C450.83 80.292 450.92 80.082 451.1 79.914C451.28 79.734 451.502 79.644 451.766 79.644C452.03 79.644 452.252 79.728 452.432 79.896C452.612 80.064 452.702 80.274 452.702 80.526C452.702 80.79 452.612 81.012 452.432 81.192C452.264 81.372 452.042 81.462 451.766 81.462Z" fill="#8A9BB8"/>
<path d="M458.85 93.09C458.07 93.09 457.332 92.982 456.636 92.766C455.94 92.538 455.394 92.256 454.998 91.92L455.574 90.912C455.958 91.2 456.45 91.452 457.05 91.668C457.65 91.872 458.28 91.974 458.94 91.974C459.84 91.974 460.488 91.836 460.884 91.56C461.28 91.272 461.478 90.894 461.478 90.426C461.478 90.078 461.364 89.808 461.136 89.616C460.92 89.412 460.632 89.262 460.272 89.166C459.912 89.058 459.51 88.968 459.066 88.896C458.622 88.824 458.178 88.74 457.734 88.644C457.302 88.548 456.906 88.41 456.546 88.23C456.186 88.038 455.892 87.78 455.664 87.456C455.448 87.132 455.34 86.7 455.34 86.16C455.34 85.644 455.484 85.182 455.772 84.774C456.06 84.366 456.48 84.048 457.032 83.82C457.596 83.58 458.28 83.46 459.084 83.46C459.696 83.46 460.308 83.544 460.92 83.712C461.532 83.868 462.036 84.078 462.432 84.342L461.874 85.368C461.454 85.08 461.004 84.876 460.524 84.756C460.044 84.624 459.564 84.558 459.084 84.558C458.232 84.558 457.602 84.708 457.194 85.008C456.798 85.296 456.6 85.668 456.6 86.124C456.6 86.484 456.708 86.766 456.924 86.97C457.152 87.174 457.446 87.336 457.806 87.456C458.178 87.564 458.58 87.654 459.012 87.726C459.456 87.798 459.894 87.888 460.326 87.996C460.77 88.092 461.172 88.23 461.532 88.41C461.904 88.578 462.198 88.824 462.414 89.148C462.642 89.46 462.756 89.874 462.756 90.39C462.756 90.942 462.6 91.422 462.288 91.83C461.988 92.226 461.544 92.538 460.956 92.766C460.38 92.982 459.678 93.09 458.85 93.09Z" fill="#8A9BB8"/>
<path d="M465.461 93V83.55H466.739V93H465.461ZM466.109 81.462C465.845 81.462 465.623 81.372 465.443 81.192C465.263 81.012 465.173 80.796 465.173 80.544C465.173 80.292 465.263 80.082 465.443 79.914C465.623 79.734 465.845 79.644 466.109 79.644C466.373 79.644 466.595 79.728 466.775 79.896C466.955 80.064 467.045 80.274 467.045 80.526C467.045 80.79 466.955 81.012 466.775 81.192C466.607 81.372 466.385 81.462 466.109 81.462Z" fill="#8A9BB8"/>
<path d="M474.507 93.09C473.595 93.09 472.773 92.886 472.041 92.478C471.321 92.058 470.751 91.488 470.331 90.768C469.911 90.036 469.701 89.202 469.701 88.266C469.701 87.318 469.911 86.484 470.331 85.764C470.751 85.044 471.321 84.48 472.041 84.072C472.761 83.664 473.583 83.46 474.507 83.46C475.443 83.46 476.271 83.664 476.991 84.072C477.723 84.48 478.293 85.044 478.701 85.764C479.121 86.484 479.331 87.318 479.331 88.266C479.331 89.202 479.121 90.036 478.701 90.768C478.293 91.488 477.723 92.058 476.991 92.478C476.259 92.886 475.431 93.09 474.507 93.09ZM474.507 91.956C475.191 91.956 475.797 91.806 476.325 91.506C476.853 91.194 477.267 90.762 477.567 90.21C477.879 89.646 478.035 88.998 478.035 88.266C478.035 87.522 477.879 86.874 477.567 86.322C477.267 85.77 476.853 85.344 476.325 85.044C475.797 84.732 475.197 84.576 474.525 84.576C473.853 84.576 473.253 84.732 472.725 85.044C472.197 85.344 471.777 85.77 471.465 86.322C471.153 86.874 470.997 87.522 470.997 88.266C470.997 88.998 471.153 89.646 471.465 90.21C471.777 90.762 472.197 91.194 472.725 91.506C473.253 91.806 473.847 91.956 474.507 91.956Z" fill="#8A9BB8"/>
<path d="M482.3 93V83.55H483.524V86.142L483.326 85.656C483.626 84.972 484.106 84.438 484.766 84.054C485.426 83.658 486.212 83.46 487.124 83.46C487.892 83.46 488.564 83.61 489.14 83.91C489.728 84.198 490.184 84.642 490.508 85.242C490.844 85.842 491.012 86.598 491.012 87.51V93H489.734V87.636C489.734 86.64 489.482 85.89 488.978 85.386C488.486 84.87 487.79 84.612 486.89 84.612C486.218 84.612 485.63 84.75 485.126 85.026C484.634 85.29 484.25 85.68 483.974 86.196C483.71 86.7 483.578 87.312 483.578 88.032V93H482.3Z" fill="#8A9BB8"/>
<path d="M497.362 93.09C496.582 93.09 495.844 92.982 495.148 92.766C494.452 92.538 493.906 92.256 493.51 91.92L494.086 90.912C494.47 91.2 494.962 91.452 495.562 91.668C496.162 91.872 496.792 91.974 497.452 91.974C498.352 91.974 499 91.836 499.396 91.56C499.792 91.272 499.99 90.894 499.99 90.426C499.99 90.078 499.876 89.808 499.648 89.616C499.432 89.412 499.144 89.262 498.784 89.166C498.424 89.058 498.022 88.968 497.578 88.896C497.134 88.824 496.69 88.74 496.246 88.644C495.814 88.548 495.418 88.41 495.058 88.23C494.698 88.038 494.404 87.78 494.176 87.456C493.96 87.132 493.852 86.7 493.852 86.16C493.852 85.644 493.996 85.182 494.284 84.774C494.572 84.366 494.992 84.048 495.544 83.82C496.108 83.58 496.792 83.46 497.596 83.46C498.208 83.46 498.82 83.544 499.432 83.712C500.044 83.868 500.548 84.078 500.944 84.342L500.386 85.368C499.966 85.08 499.516 84.876 499.036 84.756C498.556 84.624 498.076 84.558 497.596 84.558C496.744 84.558 496.114 84.708 495.706 85.008C495.31 85.296 495.112 85.668 495.112 86.124C495.112 86.484 495.22 86.766 495.436 86.97C495.664 87.174 495.958 87.336 496.318 87.456C496.69 87.564 497.092 87.654 497.524 87.726C497.968 87.798 498.406 87.888 498.838 87.996C499.282 88.092 499.684 88.23 500.044 88.41C500.416 88.578 500.71 88.824 500.926 89.148C501.154 89.46 501.268 89.874 501.268 90.39C501.268 90.942 501.112 91.422 500.8 91.83C500.5 92.226 500.056 92.538 499.468 92.766C498.892 92.982 498.19 93.09 497.362 93.09Z" fill="#8A9BB8"/>
<path d="M504.099 93.09C503.835 93.09 503.607 92.994 503.415 92.802C503.235 92.61 503.145 92.376 503.145 92.1C503.145 91.812 503.235 91.578 503.415 91.398C503.607 91.218 503.835 91.128 504.099 91.128C504.363 91.128 504.585 91.218 504.765 91.398C504.957 91.578 505.053 91.812 505.053 92.1C505.053 92.376 504.957 92.61 504.765 92.802C504.585 92.994 504.363 93.09 504.099 93.09Z" fill="#8A9BB8"/>
</svg>
